0
SECTION
2
ENTITIES
0
LINE
8
0
10
0
20
10
11
1.25
21
10
0
ARC
8
0
10
1.2395404350248282
20
9.330229331233653
40
0.6698523353987724
50
67.08765688303428
51
89.10530537446424
0
ARC
8
0
10
0.9658855300316478
20
8.686572129023997
40
1.369266760750052
50
53.41706377288174
51
67.02598705943079
0
ARC
8
0
10
-0.6509423443060673
20
6.501847993896279
40
4.087197441650732
50
47.04877222243477
51
53.46976930888463
0
ARC
8
0
10
-13.44352538934148
20
-7.63723704394167
40
23.154210080902466
50
47.32494614962128
51
47.71864456017403
0
ARC
8
0
10
9.478959222022155
20
17.15892647960881
40
10.614036042675796
50
-132.91803898126392
51
-131.09935481091773
0
ARC
8
0
10
4.362009673354414
20
11.274900483794164
40
2.8163188277817217
50
-131.34306630053175
51
-124.09525140237604
0
ARC
8
0
10
3.46651994279136
20
9.950683803494764
40
1.2177412244478831
50
-124.13079806566273
51
-111.6147422678881
0
ARC
8
0
10
3.261554093253292
20
9.430557799921157
40
0.6586884097872283
50
-111.70542991218943
51
-90.77614550396957
0
ARC
8
0
10
3.236727567198416
20
8.999346240650144
40
0.2279718489120063
50
-85.99962222394677
51
-42.00124556183842
0
ARC
8
0
10
2.596514195302837
20
9.604158254176987
40
1.1086417898789267
50
-43.08958051554192
51
-24.213619995430726
0
ARC
8
0
10
-0.5764292227685643
20
11.148192916785156
40
4.636939290505045
50
-25.53394248297125
51
-18.3042566247246
0
ARC
8
0
10
-12.004043462742764
20
14.95713979773691
40
16.68261226637845
50
-18.39778271674475
51
-14.415977136650476
0
ARC
8
0
10
-71.2149647147336
20
30.456456193625108
40
77.88838301081125
50
-14.614705281909105
51
-13.627515624331268
0
ARC
8
0
10
54.77239480763594
20
0.09831707282121822
40
51.705136538376664
50
164.52706947035003
51
166.5722158641715
0
ARC
8
0
10
14.80867655199175
20
11.162788600344037
40
10.23802559022676
50
159.33992837931262
51
164.53721981611136
0
ARC
8
0
10
7.513007253590223
20
13.948038736171728
40
2.429051356231846
50
147.30086772802662
51
160.09598703933415
0
ARC
8
0
10
5.95463216468125
20
14.94009699255902
40
0.5817545540758491
50
128.95932614392652
51
146.60736199801198
0
ARC
8
0
10
5.716641467653351
20
15.239182003308615
40
0.19956970616256212
50
92.25990329452932
51
129.8193451650964
0
ARC
8
0
10
5.680952042751042
20
15.284098437483705
40
0.15698278481279476
50
24.409002396585215
51
79.79234891733097
0
ARC
8
0
10
3.9207342728208965
20
14.33510369808312
40
2.156381324654224
50
11.664906431070184
51
28.045382664475472
0
ARC
8
0
10
-13.496866702674074
20
10.232093858322738
40
20.04998300415691
50
7.713885573127641
51
13.084298586840802
0
ARC
8
0
10
-152.71025700817765
20
-9.332598681871097
40
160.63121860428114
50
6.3455394361546515
51
7.9641200913443
0
ARC
8
0
10
218.33314775995646
20
32.38753160026962
40
212.7505350371867
50
-173.53186531489288
51
-172.51105608824727
0
ARC
8
0
10
38.3406105475856
20
8.547189392992653
40
31.186606901580117
50
-172.8374898685142
51
-168.49026962227995
0
ARC
8
0
10
12.234784256859156
20
3.2203765534062843
40
4.542877481028225
50
-168.62504400862886
51
-159.73796567712213
0
ARC
8
0
10
8.459481332314535
20
1.7951546805088676
40
0.5084825719180931
50
-163.07365622898877
51
-132.34959434150485
0
ARC
8
0
10
8.167057783211714
20
1.4905100934577191
40
0.08702777216852918
50
-125.16083172652145
51
-91.41266047840362
0
ARC
8
0
10
8.146767820446644
20
1.5609294754947711
40
0.1584629273642011
50
-83.42504770545818
51
-32.74830551752553
0
ARC
8
0
10
7.448135670899508
20
2.081812891843476
40
1.0295821936560954
50
-36.09847067361385
51
-19.416703300297147
0
ARC
8
0
10
2.492554411794143
20
3.8813834201767103
40
6.301757682741273
50
-19.86955748118147
51
-11.734150315940964
0
ARC
8
0
10
-24.382986211432137
20
9.699007984025824
40
33.79956753804641
50
-12.12462283788968
51
-8.698657284383096
0
ARC
8
0
10
-172.22367052638677
20
33.06509362717877
40
183.4750214319857
50
-8.929195430289226
51
-8.161731846865573
0
ARC
8
0
10
145.89319702254065
20
-12.327569139869118
40
137.86421571110267
50
170.66816213948903
51
171.93363369125885
0
ARC
8
0
10
30.021541318050144
20
6.855953335967098
40
20.415868549231647
50
165.71094380132558
51
171.06331977778748
0
ARC
8
0
10
13.24104325271033
20
11.135979459029434
40
3.09814625871455
50
155.17572588763264
51
165.82105398324626
0
ARC
8
0
10
10.81163274566378
20
12.282536542674082
40
0.41236520084050354
50
125.34482630451359
51
158.04742180128585
0
ARC
8
0
10
10.62248308962893
20
12.52909887987057
40
0.10249005046620323
50
90.79970562824617
51
118.8172201991707
0
ARC
8
0
10
10.614587971892478
20
12.31518569829973
40
0.3164592862930466
50
59.63476632495527
51
88.82947507468332
0
ARC
8
0
10
10.380224436632092
20
11.931361171736812
40
0.7661479022359416
50
38.951433313221514
51
59.02253935888835
0
ARC
8
0
10
9.245625076409901
20
10.977446005427412
40
2.2483732139196198
50
29.92149216171894
51
39.67928075848831
0
ARC
8
0
10
5.1457558637003595
20
8.617598633343405
40
6.9788919130752385
50
23.99138957710659
51
29.923421625984247
0
ARC
8
0
10
-16.621250941725446
20
-1.2218283602297073
40
30.866389599343556
50
22.72426118687381
51
24.24925037199339
0
ARC
8
0
10
30.93411124013646
20
18.576799791881793
40
20.645898470096558
50
-157.5774704596227
51
-154.43418591368746
0
ARC
8
0
10
16.337384402280392
20
11.599266338362648
40
4.467199505241171
50
-154.37239216528585
51
-146.84484090275288
0
ARC
8
0
10
13.729657817025835
20
9.879831647066291
40
1.3437231492402664
50
-147.41242419518323
51
-131.61079307428983
0
ARC
8
0
10
13.128436614627887
20
9.20213624107346
40
0.43777769124958354
50
-131.67863202339154
51
-104.71602494799579
0
ARC
8
0
10
13.077735344066237
20
9.04492451106706
40
0.27299522526310444
50
-102.80539011931998
51
-90.11383001897133
0
ARC
8
0
10
13.06274420415031
20
9.004781021141088
40
0.2332990504548242
50
-86.44926049586259
51
-43.95180641964276
0
ARC
8
0
10
12.485099348735337
20
9.580932993013013
40
1.0491310773990636
50
-44.70927058079708
51
-25.48066079437068
0
ARC
8
0
10
9.626400639582256
20
11.049355485227611
40
4.2625662639102115
50
-26.76792881462987
51
-19.25775895200851
0
ARC
8
0
10
-0.6715195753568416
20
14.67240317047551
40
15.179226707321325
50
-19.347871407150315
51
-15.183101383150813
0
ARC
8
0
10
-54.10983735017555
20
29.43756755133946
40
70.61973550029064
50
-15.389203381545359
51
-14.354209789299126
0
ARC
8
0
10
59.78592258220993
20
0.4678026793805624
40
46.90275394147473
50
163.71141455352927
51
165.8548954965888
0
ARC
8
0
10
23.732948836805114
20
11.003803326890207
40
9.341813867996006
50
158.2924849016408
51
163.71829998613308
0
ARC
8
0
10
17.160004040014755
20
13.65253473736314
40
2.255509398743455
50
145.84703675390915
51
159.04869404876771
0
ARC
8
0
10
15.655160936945611
20
14.687958602120304
40
0.42906633270845557
50
115.06789859040896
51
147.45384828156708
0
ARC
8
0
10
15.534366015422606
20
14.914762364529308
40
0.17296001663043803
50
90.34209453720362
51
110.65044137731674
0
ARC
8
0
10
15.52155903811198
20
14.840647082115082
40
0.24735261068282985
50
48.07106940329048
51
87.2716178407434
0
ARC
8
0
10
15.05890496974396
20
14.321204336574127
40
0.9429583589770577
50
28.40697139293127
51
48.24686820899346
0
ARC
8
0
10
12.777737076980246
20
13.002917636917893
40
3.5773748609783205
50
21.482375033061608
51
29.597535953893605
0
ARC
8
0
10
4.556011286434433
20
9.748862307647697
40
12.419635152017777
50
16.98373014779444
51
21.56115978460442
0
ARC
8
0
10
-38.27319739519008
20
-3.563711841580259
40
57.26999859314137
50
16.0610635006003
51
17.205395368193344
0
ARC
8
0
10
53.40016329071995
20
22.66963252315012
40
38.08318002579966
50
-164.16930003720142
51
-161.80133340975243
0
ARC
8
0
10
24.534503780352487
20
13.18020007343197
40
7.697729122811455
50
-161.79872339890576
51
-155.86347406386201
0
ARC
8
0
10
19.2898094189524
20
10.802566306024143
40
1.939478388305639
50
-156.60635215855058
51
-142.5729265940442
0
ARC
8
0
10
18.08765739591134
20
9.871840888831231
40
0.4192532082443631
50
-143.73536829356166
51
-112.16120247621488
0
ARC
8
0
10
17.990342121016408
20
9.665951875069943
40
0.19226962581632862
50
-108.44494008879872
51
-90.25879247815247
0
ARC
8
0
10
17.974676847292923
20
10.196838939796956
40
0.7233060962339947
50
-88.82780546907603
51
-63.58168817667061
0
ARC
8
0
10
17.688775261622677
20
10.810056991810333
40
1.3997899762418942
50
-64.26891018928303
51
-53.22699082669309
0
ARC
8
0
10
16.611465232796803
20
12.229577883511974
40
3.1818001888697536
50
-52.99021372013388
51
-44.72400856891925
0
ARC
8
0
10
10.169019933050246
20
18.67917174375607
40
12.297815878223165
50
-44.952143713042
51
-42.62657949303721
0
ARC
8
0
10
29.473591821545654
20
0.8822699652856832
40
13.95854729651741
50
135.4595494401602
51
137.28612794013193
0
ARC
8
0
10
22.08706849402002
20
8.175797351592216
40
3.5780331569993122
50
128.29025589074476
51
135.73978856699253
0
ARC
8
0
10
20.76131588839081
20
9.859436851437325
40
1.4350810456568042
50
114.86964474361487
51
128.3980815461886
0
ARC
8
0
10
20.458189302571917
20
10.518765787466007
40
0.709415852761613
50
91.01569127419539
51
115.05277756284553
0
ARC
8
0
10
20.435058989507475
20
10.97176485910582
40
0.2565225607381259
50
50.24032905447871
51
87.64180452402779
0
ARC
8
0
10
20.02482719170577
20
10.48028985064318
40
0.8967080886364946
50
30.101579579143827
51
50.17470680282348
0
ARC
8
0
10
18.006945406413678
20
9.236381633388524
40
3.2669456632150995
50
22.788632060942252
51
31.226089222576594
0
ARC
8
0
10
10.731720015222809
20
6.165045326333614
40
11.163904358589704
50
18.048850892214787
51
22.85871455082785
0
ARC
8
0
10
-27.260983050408182
20
-6.431185779413854
40
51.19016249417107
50
17.071551694641272
51
18.278538073917506
0
ARC
8
0
10
54.28157797904711
20
18.459489392339822
40
34.06689696475926
50
-163.17086627354095
51
-160.67456123917856
0
ARC
8
0
10
28.692488193471657
20
9.486771118766827
40
6.950275071915318
50
-160.66514747802822
51
-154.44706177368963
0
ARC
8
0
10
24.053319765852926
20
7.243457628051471
40
1.7973800009080265
50
-155.17411317406732
51
-140.7270807215452
0
ARC
8
0
10
22.989159264588547
20
6.364533565012965
40
0.4172542674155652
50
-141.65815513327215
51
-110.68243811921542
0
ARC
8
0
10
22.90254794624454
20
6.168875037195606
40
0.2039643002451841
50
-107.33062103119595
51
-90.2229202339257
0
ARC
8
0
10
22.88868217983528
20
6.20424969575389
40
0.23969414013891505
50
-86.87370738830245
51
-45.97492685388803
0
ARC
8
0
10
22.370223758929697
20
6.751933267376515
40
0.9938437423433618
50
-46.42663682653505
51
-26.87293954327613
0
ARC
8
0
10
19.808783558214095
20
8.145085094523735
40
3.909322294390185
50
-28.117369250619088
51
-20.311824111449127
0
ARC
8
0
10
10.579492826420752
20
11.583113908907784
40
13.758166403384527
50
-20.397140804273427
51
-16.034291881176813
0
ARC
8
0
10
-37.39825409161294
20
25.619056093858845
40
63.74676174200049
50
-16.248060185740233
51
-15.160863589114829
0
ARC
8
0
10
65.05950622864103
20
-1.974986447837642
40
42.361972065324935
50
162.80768603538502
51
165.05842447699277
0
ARC
8
0
10
32.70588539830844
20
8.03579777056148
40
8.49498842798074
50
157.13896481947228
51
162.81040120222704
0
ARC
8
0
10
26.81659891384798
20
10.548619022785507
40
2.092262225543695
50
144.27513295914514
51
157.89113858742834
0
ARC
8
0
10
25.467552690205256
20
11.531532525634619
40
0.42327321707588833
50
113.6244192941061
51
145.66401578254357
0
ARC
8
0
10
25.358842880917944
20
11.747812181843646
40
0.18201484909269203
50
90.29846410815313
51
109.55166987491198
0
ARC
8
0
10
25.3492623744742
20
11.35618706900786
40
0.5737024406101298
50
65.39184811838308
51
89.13785167878773
0
ARC
8
0
10
25.123214933567834
20
10.865196017829922
40
1.1142291056142386
50
50.121923764477316
51
65.33716362607888
0
ARC
8
0
10
24.185444541622505
20
9.72725703810243
40
2.5887717093332054
50
41.70257745967683
51
50.341955085063866
0
ARC
8
0
10
20.379582962874956
20
6.326764913096524
40
7.692487304150682
50
37.66375686761046
51
41.75421652294134
0
ARC
8
0
10
-7.459585092110885
20
-15.562389527143363
40
43.10627562644965
50
37.832712194794134
51
38.08538931658878
0
ARC
8
0
10
39.17075584878476
20
20.558430037780354
40
15.877761612925712
50
-142.42960991028073
51
-140.6483142556429
0
ARC
8
0
10
29.925453192792354
20
12.949339474385736
40
3.9039577408477495
50
-140.9656317326339
51
-133.49532288261997
0
ARC
8
0
10
28.219055949882588
20
11.14285553825306
40
1.4189845265472454
50
-133.7182829595216
51
-119.22704038410225
0
ARC
8
0
10
27.82934159818755
20
10.437695997509968
40
0.6133256228331776
50
-119.62022806092644
51
-91.43005522472083
0
ARC
8
0
10
27.77965555629696
20
17.366717775342753
40
7.542234727809572
50
-89.73882954526712
51
-85.10658545568789
0
ARC
8
0
10
26.472758311473253
20
32.651140168116115
40
22.882428578485797
50
-85.11075258224251
51
-83.57838280928763
0
ARC
8
0
10
31.591276776247973
20
-12.826578764626404
40
22.882428578504953
50
94.88924741775824
51
96.42161719071183
0
ARC
8
0
10
30.2843795314224
20
2.4578436281647473
40
7.542234727810842
50
90.26117045473329
51
94.89341454431175
0
LINE
8
0
10
30.25
20
10
11
31.5
21
10
0
ENDSEC
0
EOF